<svg width="313" height="369" viewBox="0 0 313 369" fill="none" xmlns="http://www.w3.org/2000/svg">
<path opacity="0.3" d="M267.5 153.5L267.5 357.5L45.4999 357.5L45.5 153.5C45.5 92.1964 95.1964 42.5 156.5 42.5C217.804 42.5 267.5 92.1964 267.5 153.5Z" stroke="#827DC8" stroke-width="3"/>
<path opacity="0.3" d="M1.49997 156.5C1.49999 70.8959 70.8959 1.50001 156.5 1.50003C242.104 1.50004 311.5 70.8959 311.5 156.5L311.5 357.5L1.49994 357.5L1.49997 156.5Z" stroke="white" stroke-width="3"/>
<path opacity="0.3" d="M22.5 166.5C22.5 165.66 22.5077 164.821 22.5231 163.984L21.0234 163.957C21.0545 162.263 21.1168 160.577 21.2096 158.898L22.7073 158.981C22.8 157.306 22.9234 155.639 23.077 153.98L21.5834 153.842C21.7399 152.153 21.9274 150.473 22.1453 148.802L23.6327 148.996C23.8494 147.335 24.0966 145.683 24.3736 144.041L22.8945 143.792C23.1762 142.122 23.4884 140.463 23.8305 138.815L25.2992 139.12C25.6398 137.479 26.0105 135.849 26.4106 134.231L24.9544 133.871C25.361 132.227 25.7976 130.594 26.2636 128.974L27.7052 129.388C28.1679 127.779 28.6599 126.183 29.1807 124.6L27.7557 124.131C28.2844 122.524 28.8422 120.93 29.4287 119.35L30.835 119.872C31.4174 118.303 32.0285 116.748 32.6674 115.207L31.2818 114.632C31.9301 113.069 32.6068 111.52 33.3114 109.987L34.6743 110.613C35.3728 109.093 36.0989 107.589 36.8519 106.1L35.5134 105.423C36.2767 103.914 37.0674 102.421 37.8848 100.945L39.197 101.672C40.0071 100.209 40.8439 98.7631 41.7066 97.3345L40.4225 96.5591C41.2967 95.1114 42.1972 93.6813 43.1233 92.2696L44.3775 93.0924C45.2946 91.6945 46.2372 90.3147 47.2046 88.9538L45.982 88.0847C46.9612 86.7071 47.9656 85.3485 48.9944 84.0098L50.1838 84.9238C51.2021 83.5985 52.2447 82.2929 53.3109 81.0075L52.1564 80.0498C53.2353 78.7491 54.3381 77.4688 55.464 76.2097L56.5821 77.2096C57.6961 75.964 58.833 74.7393 59.9921 73.5362L58.9119 72.4954C60.0841 71.2789 61.2788 70.0842 62.4954 68.912L63.5362 69.9922C64.7392 68.833 65.9639 67.6961 67.2096 66.5822L66.2097 65.4641C67.4688 64.3381 68.749 63.2353 70.0498 62.1564L71.0074 63.311C72.2928 62.2448 73.5985 61.2022 74.9237 60.1838L74.0097 58.9944C75.3485 57.9656 76.7071 56.9613 78.0847 55.982L78.9538 57.2046C80.3147 56.2373 81.6944 55.2947 83.0924 54.3776L82.2696 53.1234C83.6813 52.1972 85.1113 51.2967 86.5591 50.4225L87.3344 51.7066C88.7631 50.8439 90.2091 50.0072 91.6719 49.197L90.9451 47.8848C92.421 47.0674 93.9138 46.2767 95.4228 45.5135L96.0998 46.852C97.5886 46.0989 99.0933 45.3729 100.613 44.6744L99.987 43.3114C101.52 42.6069 103.069 41.9302 104.632 41.2819L105.207 42.6674C106.748 42.0285 108.303 41.4175 109.872 40.835L109.35 39.4288C110.93 38.8423 112.524 38.2844 114.131 37.7558L114.6 39.1807C116.183 38.66 117.779 38.1679 119.388 37.7052L118.974 36.2637C120.594 35.7977 122.227 35.3611 123.871 34.9545L124.231 36.4106C125.849 36.0106 127.479 35.6399 129.12 35.2992L128.815 33.8305C130.463 33.4884 132.122 33.1762 133.792 32.8945L134.041 34.3736C135.683 34.0966 137.335 33.8494 138.996 33.6327L138.802 32.1453C140.473 31.9274 142.153 31.7399 143.842 31.5835L143.98 33.0771C145.639 32.9234 147.306 32.8 148.981 32.7074L148.898 31.2097C150.576 31.1169 152.263 31.0546 153.957 31.0234L153.984 32.5232C154.821 32.5078 155.66 32.5 156.5 32.5C157.34 32.5 158.179 32.5078 159.016 32.5232L159.043 31.0234C160.737 31.0546 162.424 31.1169 164.102 31.2097L164.019 32.7074C165.694 32.8 167.361 32.9234 169.02 33.0771L169.158 31.5835C170.847 31.7399 172.527 31.9274 174.198 32.1453L174.004 33.6327C175.665 33.8494 177.317 34.0966 178.959 34.3736L179.208 32.8945C180.878 33.1762 182.537 33.4884 184.185 33.8305L183.88 35.2992C185.521 35.6399 187.151 36.0106 188.769 36.4106L189.129 34.9545C190.773 35.361 192.406 35.7976 194.026 36.2637L193.612 37.7052C195.221 38.1679 196.817 38.66 198.4 39.1807L198.869 37.7558C200.476 38.2844 202.07 38.8423 203.65 39.4288L203.128 40.835C204.697 41.4175 206.252 42.0285 207.793 42.6674L208.368 41.2818C209.931 41.9302 211.48 42.6069 213.013 43.3114L212.387 44.6744C213.907 45.3728 215.411 46.0989 216.9 46.852L217.577 45.5135C219.086 46.2767 220.579 47.0674 222.055 47.8848L221.328 49.197C222.791 50.0072 224.237 50.8439 225.666 51.7066L226.441 50.4225C227.889 51.2967 229.319 52.1972 230.73 53.1234L229.908 54.3776C231.306 55.2947 232.685 56.2373 234.046 57.2046L234.915 55.982C236.293 56.9612 237.651 57.9656 238.99 58.9944L238.076 60.1838C239.402 61.2022 240.707 62.2448 241.993 63.311L242.95 62.1564C244.251 63.2353 245.531 64.3381 246.79 65.464L245.79 66.5822C247.036 67.6961 248.261 68.833 249.464 69.9922L250.505 68.912C251.721 70.0841 252.916 71.2789 254.088 72.4954L253.008 73.5362C254.167 74.7393 255.304 75.964 256.418 77.2096L257.536 76.2097C258.662 77.4688 259.765 78.7491 260.844 80.0498L259.689 81.0075C260.755 82.2929 261.798 83.5985 262.816 84.9237L264.006 84.0098C265.034 85.3485 266.039 86.7071 267.018 88.0847L265.795 88.9538C266.763 90.3147 267.705 91.6945 268.622 93.0924L269.877 92.2696C270.803 93.6813 271.703 95.1114 272.578 96.5591L271.293 97.3344C272.156 98.7631 272.993 100.209 273.803 101.672L275.115 100.945C275.933 102.421 276.723 103.914 277.487 105.423L276.148 106.1C276.901 107.589 277.627 109.093 278.326 110.613L279.689 109.987C280.393 111.52 281.07 113.069 281.718 114.632L280.333 115.207C280.972 116.748 281.583 118.303 282.165 119.872L283.571 119.35C284.158 120.93 284.716 122.524 285.244 124.131L283.819 124.6C284.34 126.183 284.832 127.779 285.295 129.388L286.736 128.974C287.202 130.594 287.639 132.227 288.046 133.871L286.589 134.231C286.989 135.849 287.36 137.479 287.701 139.12L289.17 138.815C289.512 140.463 289.824 142.122 290.106 143.792L288.626 144.041C288.903 145.683 289.151 147.335 289.367 148.996L290.855 148.802C291.073 150.473 291.26 152.153 291.417 153.842L289.923 153.98C290.077 155.639 290.2 157.306 290.293 158.981L291.79 158.898C291.883 160.576 291.945 162.263 291.977 163.957L290.477 163.984C290.492 164.821 290.5 165.66 290.5 166.5L290.5 169.031L292 169.031L292 174.094L290.5 174.094L290.5 179.156L292 179.156L292 184.219L290.5 184.219L290.5 189.281L292 189.281L292 194.344L290.5 194.344L290.5 199.406L292 199.406L292 204.469L290.5 204.469L290.5 209.531L292 209.531L292 214.594L290.5 214.594L290.5 219.656L292 219.656L292 224.719L290.5 224.719L290.5 229.781L292 229.781L292 234.844L290.5 234.844L290.5 239.906L292 239.906L292 244.969L290.5 244.969L290.5 250.031L292 250.031L292 255.094L290.5 255.094L290.5 260.156L292 260.156L292 265.219L290.5 265.219L290.5 270.281L292 270.281L292 275.344L290.5 275.344L290.5 280.406L292 280.406L292 285.469L290.5 285.469L290.5 290.531L292 290.531L292 295.594L290.5 295.594L290.5 300.656L292 300.656L292 305.719L290.5 305.719L290.5 310.781L292 310.781L292 315.844L290.5 315.844L290.5 320.906L292 320.906L292 325.969L290.5 325.969L290.5 331.031L292 331.031L292 336.094L290.5 336.094L290.5 341.156L292 341.156L292 346.219L290.5 346.219L290.5 351.281L292 351.281L292 356.344L290.5 356.344L290.5 361.406L292 361.406L292 366.469L290.5 366.469L290.5 367.5L289.491 367.5L289.491 369L284.472 369L284.472 367.5L279.454 367.5L279.454 369L274.435 369L274.435 367.5L269.417 367.5L269.417 369L264.398 369L264.398 367.5L259.38 367.5L259.38 369L254.361 369L254.361 367.5L249.343 367.5L249.343 369L244.324 369L244.324 367.5L239.306 367.5L239.306 369L234.287 369L234.287 367.5L229.268 367.5L229.268 369L224.25 369L224.25 367.5L219.231 367.5L219.231 369L214.213 369L214.213 367.5L209.194 367.5L209.194 369L204.176 369L204.176 367.5L199.157 367.5L199.157 369L194.139 369L194.139 367.5L189.12 367.5L189.12 369L184.102 369L184.102 367.5L179.083 367.5L179.083 369L174.065 369L174.065 367.5L169.046 367.5L169.046 369L164.028 369L164.028 367.5L159.009 367.5L159.009 369L153.991 369L153.991 367.5L148.972 367.5L148.972 369L143.954 369L143.954 367.5L138.935 367.5L138.935 369L133.917 369L133.917 367.5L128.898 367.5L128.898 369L123.88 369L123.88 367.5L118.861 367.5L118.861 369L113.843 369L113.843 367.5L108.824 367.5L108.824 369L103.806 369L103.806 367.5L98.787 367.5L98.787 369L93.7685 369L93.7685 367.5L88.7499 367.5L88.7499 369L83.7314 369L83.7314 367.5L78.7129 367.5L78.7129 369L73.6944 369L73.6944 367.5L68.6758 367.5L68.6758 369L63.6573 369L63.6573 367.5L58.6388 367.5L58.6388 369L53.6203 369L53.6203 367.5L48.6017 367.5L48.6017 369L43.5832 369L43.5832 367.5L38.5647 367.5L38.5647 369L33.5462 369L33.5462 367.5L28.5276 367.5L28.5276 369L23.5091 369L23.5091 367.5L22.4999 367.5L22.4999 366.469L20.9999 366.469L20.9999 361.406L22.4999 361.406L22.4999 356.344L20.9999 356.344L20.9999 351.281L22.4999 351.281L22.4999 346.219L20.9999 346.219L20.9999 341.156L22.4999 341.156L22.4999 336.094L20.9999 336.094L20.9999 331.031L22.4999 331.031L22.4999 325.969L20.9999 325.969L20.9999 320.906L22.4999 320.906L22.5 315.844L21 315.844L21 310.781L22.5 310.781L22.5 305.719L21 305.719L21 300.656L22.5 300.656L22.5 295.594L21 295.594L21 290.531L22.5 290.531L22.5 285.469L21 285.469L21 280.406L22.5 280.406L22.5 275.344L21 275.344L21 270.281L22.5 270.281L22.5 265.219L21 265.219L21 260.156L22.5 260.156L22.5 255.094L21 255.094L21 250.031L22.5 250.031L22.5 244.969L21 244.969L21 239.906L22.5 239.906L22.5 234.844L21 234.844L21 229.781L22.5 229.781L22.5 224.719L21 224.719L21 219.656L22.5 219.656L22.5 214.594L21 214.594L21 209.531L22.5 209.531L22.5 204.469L21 204.469L21 199.406L22.5 199.406L22.5 194.344L21 194.344L21 189.281L22.5 189.281L22.5 184.219L21 184.219L21 179.156L22.5 179.156L22.5 174.094L21 174.094L21 169.031L22.5 169.031L22.5 166.5Z" stroke="white" stroke-width="3" stroke-dasharray="5 5"/>
</svg>
